<svg xmlns="http://www.w3.org/2000/svg" width="748" height="687" viewBox="0 0 748 687"><defs><clipPath id="rxdta"><path fill="#fff" d="M113 75V58h17v17zm8-9h-7v1h7v7h1v-7h7v-1h-7v-7h-1z"/></clipPath><clipPath id="rxdtb"><path fill="#fff" d="M121 59h1v7h7v1h-7v7h-1v-7h-7v-1h7z"/></clipPath><clipPath id="rxdtc"><path fill="#fff" d="M591 339v-17h17v17zm8-9h-7v1h7v7h1v-7h7v-1h-7v-7h-1z"/></clipPath><clipPath id="rxdtd"><path fill="#fff" d="M599 323h1v7h7v1h-7v7h-1v-7h-7v-1h7z"/></clipPath><clipPath id="rxdte"><path fill="#fff" d="M135 92V75h17v17zm8-9h-7v1h7v7h1v-7h7v-1h-7v-7h-1z"/></clipPath><clipPath id="rxdtf"><path fill="#fff" d="M143 76h1v7h7v1h-7v7h-1v-7h-7v-1h7z"/></clipPath></defs><g><g><path fill="#9172e6" d="M273.75 366.43l4.697 3.732L5.251 686.57.553 682.84z"/></g><g><path fill="#9172e6" d="M742.75.43l4.697 3.732L478.251 318.57l-4.698-3.732z"/></g><g><path fill="#9173e6" d="M121 59h1v7h7v1h-7v7h-1v-7h-7v-1h7z"/><path fill="none" stroke="#9173e6" stroke-linecap="round" stroke-linejoin="round" stroke-miterlimit="50" stroke-width="2" d="M121 59h1v7h7v1h-7v7h-1v-7h-7v-1h7z" clip-path="url(&quot;#rxdta&quot;)"/><path fill="none" stroke="#5e42b0" stroke-miterlimit="50" stroke-width="6" d="M121 59h1v7h7v1h-7v7h-1v-7h-7v-1h7z" clip-path="url(&quot;#rxdtb&quot;)"/></g><g><path fill="#9173e6" d="M599 323h1v7h7v1h-7v7h-1v-7h-7v-1h7z"/><path fill="none" stroke="#9173e6" stroke-linecap="round" stroke-linejoin="round" stroke-miterlimit="50" stroke-width="2" d="M599 323h1v7h7v1h-7v7h-1v-7h-7v-1h7z" clip-path="url(&quot;#rxdtc&quot;)"/><path fill="none" stroke="#5e42b0" stroke-miterlimit="50" stroke-width="6" d="M599 323h1v7h7v1h-7v7h-1v-7h-7v-1h7z" clip-path="url(&quot;#rxdtd&quot;)"/></g><g opacity=".3"><path fill="#9173e6" d="M143 76h1v7h7v1h-7v7h-1v-7h-7v-1h7z"/><path fill="none" stroke="#9173e6" stroke-linecap="round" stroke-linejoin="round" stroke-miterlimit="50" stroke-width="2" d="M143 76h1v7h7v1h-7v7h-1v-7h-7v-1h7z" clip-path="url(&quot;#rxdte&quot;)"/><path fill="none" stroke="#5e42b0" stroke-miterlimit="50" stroke-width="6" d="M143 76h1v7h7v1h-7v7h-1v-7h-7v-1h7z" clip-path="url(&quot;#rxdtf&quot;)"/></g></g></svg>