<svg xmlns="http://www.w3.org/2000/svg" width="582" height="668" viewBox="0 0 582 668"><defs><clipPath id="8xxaa"><path fill="#fff" d="M111 109V92h17v17zm8-9h-7v1h7v7h1v-7h7v-1h-7v-7h-1z"/></clipPath><clipPath id="8xxab"><path fill="#fff" d="M119 93h1v7h7v1h-7v7h-1v-7h-7v-1h7z"/></clipPath><clipPath id="8xxac"><path fill="#fff" d="M89 100V83h17v17zm8-9h-7v1h7v7h1v-7h7v-1h-7v-7h-1z"/></clipPath><clipPath id="8xxad"><path fill="#fff" d="M97 84h1v7h7v1h-7v7h-1v-7h-7v-1h7z"/></clipPath></defs><g><g><path fill="#9172e6" d="M576.75.43l4.697 3.732L5.251 667.57l-4.698-3.733z"/></g><g><path fill="#5e42b0" d="M469.75 151.43l4.697 3.732L226.251 467.57l-4.698-3.733z"/></g><g><path fill="#9173e6" d="M119 93h1v7h7v1h-7v7h-1v-7h-7v-1h7z"/><path fill="none" stroke="#9173e6" stroke-linecap="round" stroke-linejoin="round" stroke-miterlimit="50" stroke-width="2" d="M119 93h1v7h7v1h-7v7h-1v-7h-7v-1h7z" clip-path="url(&quot;#8xxaa&quot;)"/><path fill="none" stroke="#5e42b0" stroke-miterlimit="50" stroke-width="6" d="M119 93h1v7h7v1h-7v7h-1v-7h-7v-1h7z" clip-path="url(&quot;#8xxab&quot;)"/></g><g opacity=".3"><path fill="#9173e6" d="M97 84h1v7h7v1h-7v7h-1v-7h-7v-1h7z"/><path fill="none" stroke="#9173e6" stroke-linecap="round" stroke-linejoin="round" stroke-miterlimit="50" stroke-width="2" d="M97 84h1v7h7v1h-7v7h-1v-7h-7v-1h7z" clip-path="url(&quot;#8xxac&quot;)"/><path fill="none" stroke="#5e42b0" stroke-miterlimit="50" stroke-width="6" d="M97 84h1v7h7v1h-7v7h-1v-7h-7v-1h7z" clip-path="url(&quot;#8xxad&quot;)"/></g></g></svg>