<svg xmlns="http://www.w3.org/2000/svg" width="274" height="404" viewBox="0 0 274 404"><defs><clipPath id="sxq0a"><path fill="#fff" d="M45 17V0h17v17zm8-9h-7v1h7v7h1V9h7V8h-7V1h-1z"/></clipPath><clipPath id="sxq0b"><path fill="#fff" d="M53 1h1v7h7v1h-7v7h-1V9h-7V8h7z"/></clipPath><clipPath id="sxq0c"><path fill="#fff" d="M67 34V17h17v17zm8-9h-7v1h7v7h1v-7h7v-1h-7v-7h-1z"/></clipPath><clipPath id="sxq0d"><path fill="#fff" d="M75 18h1v7h7v1h-7v7h-1v-7h-7v-1h7z"/></clipPath></defs><g><g><path fill="#9173e6" d="M53 1h1v7h7v1h-7v7h-1V9h-7V8h7z"/><path fill="none" stroke="#9173e6" stroke-linecap="round" stroke-linejoin="round" stroke-miterlimit="50" stroke-width="2" d="M53 1h1v7h7v1h-7v7h-1V9h-7V8h7z" clip-path="url(&quot;#sxq0a&quot;)"/><path fill="none" stroke="#5e42b0" stroke-miterlimit="50" stroke-width="6" d="M53 1h1v7h7v1h-7v7h-1V9h-7V8h7z" clip-path="url(&quot;#sxq0b&quot;)"/></g><g opacity=".3"><path fill="#9173e6" d="M75 18h1v7h7v1h-7v7h-1v-7h-7v-1h7z"/><path fill="none" stroke="#9173e6" stroke-linecap="round" stroke-linejoin="round" stroke-miterlimit="50" stroke-width="2" d="M75 18h1v7h7v1h-7v7h-1v-7h-7v-1h7z" clip-path="url(&quot;#sxq0c&quot;)"/><path fill="none" stroke="#5e42b0" stroke-miterlimit="50" stroke-width="6" d="M75 18h1v7h7v1h-7v7h-1v-7h-7v-1h7z" clip-path="url(&quot;#sxq0d&quot;)"/></g><g><path fill="#936eea" d="M273.447 91.162L5.251 403.571l-4.698-3.733L268.749 87.43"/></g></g></svg>